<svg width="24" height="24" viewBox="0 0 600 600" fill="none" xmlns="http://www.w3.org/2000/svg">
<g clip-path="url(#clip0_980_2386)">
<path d="M394 0H206C92.2293 0 0 92.2293 0 206V394C0 507.771 92.2293 600 206 600H394C507.771 600 600 507.771 600 394V206C600 92.2293 507.771 0 394 0Z" fill="black"></path>
<g clip-path="url(#clip1_980_2386)">
<path d="M403.721 480.929C397.257 481.56 390.619 477.783 383.987 473.981C374.236 468.392 364.485 462.804 354.714 457.242C339.457 448.554 324.167 439.923 308.936 431.19C306.086 429.559 303.288 428.296 299.886 428.509C297.699 428.644 295.737 428.986 293.801 430.107C280.448 437.816 267.062 445.473 253.657 453.085C239.506 461.122 225.343 469.134 211.147 477.081C204.637 480.722 197.562 481.418 190.28 480.568C181.089 479.491 174.283 474.399 168.578 467.477C162.789 460.452 161.509 452.144 162.41 443.52C163.117 436.727 164.674 430.023 165.922 423.288C166.726 418.97 167.536 414.651 168.501 410.372C169.189 407.316 170.077 404.313 171.151 401.374C174.226 392.93 177.821 384.751 183.102 377.397C188.357 370.082 194.686 363.92 202.264 359.086C213.726 351.771 225.259 344.565 236.734 337.256C245.919 331.403 260.733 321.587 273.018 313.382C278.325 309.844 275.25 301.548 268.927 302.341C233.132 306.795 171.286 314.394 164.879 314.568C159.2 314.716 154.26 312.609 149.513 309.708C143.241 305.873 137.928 300.904 132.641 295.889C124.948 288.593 117.21 281.336 109.62 273.93C105.549 269.96 101.766 265.693 99.6437 260.266C97.0965 253.756 96.2346 247.221 97.7719 240.163C100.126 229.367 106.327 221.82 115.917 217.037C119.487 215.258 123.565 214.124 127.534 213.595C139.408 212.016 151.346 210.921 163.252 209.573C172.174 208.562 181.082 207.414 190.004 206.409C194.777 205.874 199.569 205.552 204.341 205.055C209.976 204.469 215.643 204.018 221.226 203.096C225.992 202.316 229.266 199.145 231.267 194.865C234.714 187.505 237.963 180.054 241.307 172.642C245.09 164.263 248.91 155.903 252.68 147.518C257.948 135.8 263.228 124.089 268.413 112.339C271.282 105.842 275.237 100.267 280.981 95.9937C287.903 90.8439 295.763 89.3292 304.086 90.2316C317.722 91.714 326.657 99.5451 332.156 111.804C335.842 120.009 339.676 128.149 343.393 136.342C347.774 145.997 352.09 155.678 356.444 165.339C360.883 175.194 365.327 185.049 369.779 194.897C371.927 199.654 375.477 202.509 380.771 203.089C393.526 204.495 406.281 205.925 419.03 207.388C430.396 208.69 441.749 210.076 453.115 211.359C459.701 212.1 466.301 212.79 472.907 213.357C486.247 214.504 499.214 224.656 502.604 237.443C506.271 251.281 502.778 263.321 492.158 273.086C481.905 282.515 471.62 291.906 461.329 301.284C449.287 312.254 437.298 323.269 425.134 334.097C420.928 337.842 418.844 342.077 419.905 347.71C421.32 355.174 422.671 362.644 424.105 370.101C424.954 374.516 425.919 378.905 426.832 383.301C428.389 390.849 429.959 398.39 431.502 405.944C433.329 414.864 434.866 423.849 437.04 432.685C438.391 438.19 438.591 443.668 438.79 449.25C439.022 455.695 436.97 461.322 433.265 466.343C426.357 475.695 417.191 480.942 403.741 480.916L403.721 480.929Z" fill="white"></path>
</g>
</g>
<defs>
<clipPath id="clip0_980_2386">
<rect width="600" height="600" fill="white"></rect>
</clipPath>
<clipPath id="clip1_980_2386">
<rect width="407" height="391" fill="white" transform="translate(97 90)"></rect>
</clipPath>
</defs>
</svg>